<svg width="400" height="400" viewBox="0 0 400 400" fill="none" xmlns="http://www.w3.org/2000/svg">
<path d="M195.578 8.84459C198.288 3.42405 203.828 0 209.889 0H267.056C273.003 0 276.871 6.2585 274.211 11.5777L172.422 215.155C169.712 220.576 164.172 224 158.111 224H100.944C94.9972 224 91.1292 217.742 93.7889 212.422L195.578 8.84459Z" fill="white"/>
<path d="M227.578 184.845C230.288 179.424 235.828 176 241.889 176H299.056C305.003 176 308.871 182.258 306.211 187.578L204.422 391.155C201.712 396.576 196.172 400 190.111 400H132.944C126.997 400 123.129 393.742 125.789 388.422L227.578 184.845Z" fill="white"/>
</svg>
